<?xml version="1.0" encoding="UTF-8"?>
<svg xmlns="http://www.w3.org/2000/svg" version="1.2" baseProfile="tiny-ps" viewBox="0 0 500 500">
<title>nuARGO</title>
<rect width="500" height="500" fill="#ffffff"/>
<path fill="#c9a84c" d="M104.26 243.05V275.68H95.38V243.34Q95.38 235.66 92.38 231.85Q89.39 228.04 83.41 228.04Q76.21 228.04 72.06 232.62Q67.91 237.21 67.91 245.12V275.68H58.98V221.61H67.91V230.01Q71.1 225.14 75.42 222.73Q79.74 220.31 85.38 220.31Q94.7 220.31 99.48 226.08Q104.26 231.85 104.26 243.05Z"/>
<path fill="#c9a84c" d="M121.06 254.34V221.61H129.94V254.01Q129.94 261.68 132.94 265.52Q135.93 269.36 141.91 269.36Q149.11 269.36 153.28 264.77Q157.46 260.19 157.46 252.27V221.61H166.34V275.68H157.46V267.38Q154.22 272.3 149.95 274.69Q145.68 277.08 140.03 277.08Q130.71 277.08 125.89 271.29Q121.06 265.5 121.06 254.34ZM143.41 220.31Z"/>
<path fill="#00355f" d="M189.9 272.16 189.22 275.68H170.2L170.88 272.16L175.85 270.85L208.1 210.42H219.68L231.95 270.85L237.21 272.16L236.53 275.68H210.03L210.7 272.16L217.37 270.85L214.42 254.1H191.64L182.75 270.85ZM208.58 221.71 194.34 248.79H213.46Z"/>
<path fill="#00355f" d="M267.91 248.26 263.9 270.85 271.96 272.16 271.39 275.68H241.12L241.7 272.16L249.61 270.85L259.32 215.73L251.26 214.47L251.88 210.95H277.71Q290.36 210.95 296.44 214.95Q302.52 218.96 302.52 227.26Q302.52 234.79 298.44 239.81Q294.36 244.83 286.64 246.91L296.34 270.85L303.44 272.16L302.86 275.68H283.55L273.51 248.26ZM271.48 242.95Q279.4 242.95 283.89 239.02Q288.38 235.08 288.38 228.04Q288.38 221.76 285.46 219.01Q282.54 216.26 276.89 216.26H273.56L268.83 242.95Z"/>
<path fill="#00355f" d="M310.58 250.43Q310.58 238.32 315.73 229.19Q320.87 220.07 330.28 215.15Q339.69 210.22 351.81 210.22Q363.69 210.22 374.74 213.22L372.09 228.08H368.03L368.08 219.68Q362.29 215.29 352.63 215.29Q344.96 215.29 338.73 219.8Q332.5 224.32 329.05 232.55Q325.6 240.78 325.6 251.4Q325.6 260.96 329.72 266.32Q333.85 271.68 341.38 271.68Q347.66 271.68 352.82 269.6L356.11 251.26L348.04 249.71L348.62 246.43H377.49L376.91 249.71L370.35 251.26L366.63 272.3Q359.49 274.52 353.02 275.59Q346.55 276.65 339.16 276.65Q325.6 276.65 318.09 269.7Q310.58 262.74 310.58 250.43Z"/>
<path fill="#00355f" d="M432.67 234.99Q432.67 225.81 429.0 220.55Q425.33 215.29 418.77 215.29Q412.88 215.29 407.93 220.12Q402.98 224.95 399.84 234.09Q396.71 243.24 396.71 252.27Q396.71 261.34 400.28 266.51Q403.85 271.68 410.32 271.68Q416.35 271.68 421.33 266.9Q426.3 262.12 429.48 253.14Q432.67 244.16 432.67 234.99ZM409.45 276.65Q401.44 276.65 395.23 273.34Q389.03 270.03 385.6 264.02Q382.17 258.01 382.17 250.39Q382.17 238.7 386.91 229.46Q391.64 220.21 400.21 215.22Q408.77 210.22 419.93 210.22Q427.94 210.22 434.14 213.53Q440.35 216.84 443.77 222.85Q447.2 228.86 447.2 236.48Q447.2 248.07 442.35 257.55Q437.5 267.04 429.07 271.84Q420.65 276.65 409.45 276.65Z"/>
</svg>
