<?xml version="1.0" encoding="UTF-8"?>
<svg xmlns="http://www.w3.org/2000/svg" version="1.2" baseProfile="tiny" viewBox="0 0 500 500">
<title>nuARGO</title>
<rect width="500" height="500" fill="#ffffff"/>
<path fill="#c9a84c" transform="translate(50,275.6819) scale(0.048274,-0.048274)" d="M1124 676V0H940V670Q940 829 878.0 908.0Q816 987 692 987Q543 987 457.0 892.0Q371 797 371 633V0H186V1120H371V946Q437 1047 526.5 1097.0Q616 1147 733 1147Q926 1147 1025.0 1027.5Q1124 908 1124 676Z"/>
<path fill="#c9a84c" transform="translate(112.6599,275.6819) scale(0.048274,-0.048274)" d="M174 442V1120H358V449Q358 290 420.0 210.5Q482 131 606 131Q755 131 841.5 226.0Q928 321 928 485V1120H1112V0H928V172Q861 70 772.5 20.5Q684 -29 567 -29Q374 -29 274.0 91.0Q174 211 174 442ZM637 1147Z"/>
<path fill="#00355f" transform="translate(175.3198,275.6819) scale(0.048274,-0.048274)" d="M302 73 288 0H-106L-92 73L11 100L679 1352H919L1173 100L1282 73L1268 0H719L733 73L871 100L810 447H338L154 100ZM689 1118 394 557H790Z"/>
<path fill="#00355f" transform="translate(241.2624,275.6819) scale(0.048274,-0.048274)" d="M552 568 469 100 636 73 624 0H-3L9 73L173 100L374 1242L207 1268L220 1341H755Q1017 1341 1143.0 1258.0Q1269 1175 1269 1003Q1269 847 1184.5 743.0Q1100 639 940 596L1141 100L1288 73L1276 0H876L668 568ZM626 678Q790 678 883.0 759.5Q976 841 976 987Q976 1117 915.5 1174.0Q855 1231 738 1231H669L571 678Z"/>
<path fill="#00355f" transform="translate(307.2049,275.6819) scale(0.048274,-0.048274)" d="M70 523Q70 774 176.5 963.0Q283 1152 478.0 1254.0Q673 1356 924 1356Q1170 1356 1399 1294L1344 986H1260L1261 1160Q1141 1251 941 1251Q782 1251 653.0 1157.5Q524 1064 452.5 893.5Q381 723 381 503Q381 305 466.5 194.0Q552 83 708 83Q838 83 945 126L1013 506L846 538L858 606H1456L1444 538L1308 506L1231 70Q1083 24 949.0 2.0Q815 -20 662 -20Q381 -20 225.5 124.0Q70 268 70 523Z"/>
<path fill="#00355f" transform="translate(378.6025,275.6819) scale(0.048274,-0.048274)" d="M1120 843Q1120 1033 1044.0 1142.0Q968 1251 832 1251Q710 1251 607.5 1151.0Q505 1051 440.0 861.5Q375 672 375 485Q375 297 449.0 190.0Q523 83 657 83Q782 83 885.0 182.0Q988 281 1054.0 467.0Q1120 653 1120 843ZM639 -20Q473 -20 344.5 48.5Q216 117 145.0 241.5Q74 366 74 524Q74 766 172.0 957.5Q270 1149 447.5 1252.5Q625 1356 856 1356Q1022 1356 1150.5 1287.5Q1279 1219 1350.0 1094.5Q1421 970 1421 812Q1421 572 1320.5 375.5Q1220 179 1045.5 79.5Q871 -20 639 -20Z"/>
</svg>